<svg width="17" height="16" viewBox="0 0 17 16" fill="none" xmlns="http://www.w3.org/2000/svg">
<path d="M0.998535 2C0.998535 3.10457 1.89397 4 2.99854 4V4C4.1031 4 4.99854 3.10457 4.99854 2V2C4.99854 0.895431 4.1031 0 2.99854 0V0C1.89397 0 0.998535 0.895431 0.998535 2V2ZM6.99854 14C6.99854 15.1046 7.89397 16 8.99854 16V16C10.1031 16 10.9985 15.1046 10.9985 14V14C10.9985 12.8954 10.1031 12 8.99854 12V12C7.89397 12 6.99854 12.8954 6.99854 14V14ZM0.998535 14C0.998535 15.1046 1.89397 16 2.99854 16V16C4.1031 16 4.99854 15.1046 4.99854 14V14C4.99854 12.8954 4.1031 12 2.99854 12V12C1.89397 12 0.998535 12.8954 0.998535 14V14ZM0.998535 8C0.998535 9.10457 1.89397 10 2.99854 10V10C4.1031 10 4.99854 9.10457 4.99854 8V8C4.99854 6.89543 4.1031 6 2.99854 6V6C1.89397 6 0.998535 6.89543 0.998535 8V8ZM6.99854 8C6.99854 9.10457 7.89397 10 8.99854 10V10C10.1031 10 10.9985 9.10457 10.9985 8V8C10.9985 6.89543 10.1031 6 8.99854 6V6C7.89397 6 6.99854 6.89543 6.99854 8V8ZM14.9985 0C13.894 0 12.9985 0.895431 12.9985 2V2C12.9985 3.10457 13.894 4 14.9985 4V4C16.1031 4 16.9985 3.10457 16.9985 2V2C16.9985 0.895431 16.1031 0 14.9985 0V0ZM6.99854 2C6.99854 3.10457 7.89397 4 8.99854 4V4C10.1031 4 10.9985 3.10457 10.9985 2V2C10.9985 0.895431 10.1031 0 8.99854 0V0C7.89397 0 6.99854 0.895431 6.99854 2V2ZM12.9985 8C12.9985 9.10457 13.894 10 14.9985 10V10C16.1031 10 16.9985 9.10457 16.9985 8V8C16.9985 6.89543 16.1031 6 14.9985 6V6C13.894 6 12.9985 6.89543 12.9985 8V8ZM12.9985 14C12.9985 15.1046 13.894 16 14.9985 16V16C16.1031 16 16.9985 15.1046 16.9985 14V14C16.9985 12.8954 16.1031 12 14.9985 12V12C13.894 12 12.9985 12.8954 12.9985 14V14Z" fill="white"/>
</svg>
